# xmcd
# 
# Track frame offsets:
#     200
#     18992
#     46467
#     48720
#     71115
#     75072
#     119300
#     124082
#     148925
#     151545
#     174632
#     177810
#     195317
#     200650
#     225022
#     234235
# 
# Disc length: 3301
# 
# Revision: 3
# Processed by: cddbd v1.5.2PL0 Copyright (c) Steve Scherf et al.
# Submitted via: BonkEnc v1.0.6
# 
DISCID=c60ce310
DTITLE=Bobby Previte - Music Of The Moscow Circus
DYEAR=1991
DGENRE=Contemporary Jazz
TTITLE0=Overture
TTITLE1=Russian Bar
TTITLE2=Crazy Clown
TTITLE3=One Hand On The Wheel
TTITLE4=Confused Clown
TTITLE5=Spring, Beauty, And the Muse
TTITLE6=March Clown
TTITLE7=Spring Steps Out
TTITLE8=Comic Clown
TTITLE9=The Melody. And the Melody Inside That
TTITLE10=Congo Clown
TTITLE11=Rattango
TTITLE12=More Confused Clown
TTITLE13=Seven Alarm
TTITLE14=Finale
TTITLE15=Thunder and Blazes
EXTD=
EXTT0=
EXTT1=
EXTT2=
EXTT3=
EXTT4=
EXTT5=
EXTT6=
EXTT7=
EXTT8=
EXTT9=
EXTT10=
EXTT11=
EXTT12=
EXTT13=
EXTT14=
EXTT15=
PLAYORDER=
